  0
SECTION
  2
HEADER
  9
$ACADVER
  1
AC1009
  9
$MEASUREMENT
 70
     1
  0
ENDSEC
  0
SECTION
  2
ENTITIES
  0
LWPOLYLINE
  8
0
 62
7
 90
9
 70
1
 10
34.925000
 20
9.826563
 10
35.373437
 20
9.826563
 10
35.373437
 20
10.523438
 10
34.476562
 20
10.523438
 10
34.476562
 20
9.826563
 10
35.373437
 20
9.826563
 10
35.373437
 20
10.523438
 10
34.476562
 20
10.523438
 10
34.476562
 20
9.826563
  0
LWPOLYLINE
  8
0
 62
7
 90
9
 70
1
 10
34.925000
 20
8.526563
 10
35.373437
 20
8.526563
 10
35.373437
 20
9.223437
 10
34.476562
 20
9.223437
 10
34.476562
 20
8.526563
 10
35.373437
 20
8.526563
 10
35.373437
 20
9.223437
 10
34.476562
 20
9.223437
 10
34.476562
 20
8.526563
  0
LWPOLYLINE
  8
0
 62
7
 90
9
 70
1
 10
37.766562
 20
4.445000
 10
37.766562
 20
3.996563
 10
38.463438
 20
3.996563
 10
38.463438
 20
4.893438
 10
37.766562
 20
4.893438
 10
37.766562
 20
3.996563
 10
38.463438
 20
3.996563
 10
38.463438
 20
4.893438
 10
37.766562
 20
4.893438
  0
LWPOLYLINE
  8
0
 62
7
 90
9
 70
1
 10
36.466562
 20
4.445000
 10
36.466562
 20
3.996563
 10
37.163438
 20
3.996563
 10
37.163438
 20
4.893438
 10
36.466562
 20
4.893438
 10
36.466562
 20
3.996563
 10
37.163438
 20
3.996563
 10
37.163438
 20
4.893438
 10
36.466562
 20
4.893438
  0
LWPOLYLINE
  8
0
 62
7
 90
9
 70
1
 10
37.766562
 20
6.350000
 10
37.766562
 20
5.901562
 10
38.463438
 20
5.901562
 10
38.463438
 20
6.798437
 10
37.766562
 20
6.798437
 10
37.766562
 20
5.901562
 10
38.463438
 20
5.901562
 10
38.463438
 20
6.798437
 10
37.766562
 20
6.798437
  0
LWPOLYLINE
  8
0
 62
7
 90
9
 70
1
 10
36.466562
 20
6.350000
 10
36.466562
 20
5.901562
 10
37.163438
 20
5.901562
 10
37.163438
 20
6.798437
 10
36.466562
 20
6.798437
 10
36.466562
 20
5.901562
 10
37.163438
 20
5.901562
 10
37.163438
 20
6.798437
 10
36.466562
 20
6.798437
  0
LWPOLYLINE
  8
0
 62
7
 90
9
 70
1
 10
27.940000
 20
16.811563
 10
28.388438
 20
16.811563
 10
28.388438
 20
17.508437
 10
27.491563
 20
17.508437
 10
27.491563
 20
16.811563
 10
28.388438
 20
16.811563
 10
28.388438
 20
17.508437
 10
27.491563
 20
17.508437
 10
27.491563
 20
16.811563
  0
LWPOLYLINE
  8
0
 62
7
 90
9
 70
1
 10
27.940000
 20
15.511563
 10
28.388438
 20
15.511563
 10
28.388438
 20
16.208437
 10
27.491563
 20
16.208437
 10
27.491563
 20
15.511563
 10
28.388438
 20
15.511563
 10
28.388438
 20
16.208437
 10
27.491563
 20
16.208437
 10
27.491563
 20
15.511563
  0
LWPOLYLINE
  8
0
 62
7
 90
9
 70
1
 10
26.035000
 20
16.811563
 10
26.483438
 20
16.811563
 10
26.483438
 20
17.508437
 10
25.586562
 20
17.508437
 10
25.586562
 20
16.811563
 10
26.483438
 20
16.811563
 10
26.483438
 20
17.508437
 10
25.586562
 20
17.508437
 10
25.586562
 20
16.811563
  0
LWPOLYLINE
  8
0
 62
7
 90
9
 70
1
 10
26.035000
 20
15.511563
 10
26.483438
 20
15.511563
 10
26.483438
 20
16.208437
 10
25.586562
 20
16.208437
 10
25.586562
 20
15.511563
 10
26.483438
 20
15.511563
 10
26.483438
 20
16.208437
 10
25.586562
 20
16.208437
 10
25.586562
 20
15.511563
  0
LWPOLYLINE
  8
0
 62
7
 90
9
 70
1
 10
28.241563
 20
13.335000
 10
28.241563
 20
12.886563
 10
28.938437
 20
12.886563
 10
28.938437
 20
13.783438
 10
28.241563
 20
13.783438
 10
28.241563
 20
12.886563
 10
28.938437
 20
12.886563
 10
28.938437
 20
13.783438
 10
28.241563
 20
13.783438
  0
LWPOLYLINE
  8
0
 62
7
 90
9
 70
1
 10
26.941562
 20
13.335000
 10
26.941562
 20
12.886563
 10
27.638437
 20
12.886563
 10
27.638437
 20
13.783438
 10
26.941562
 20
13.783438
 10
26.941562
 20
12.886563
 10
27.638437
 20
12.886563
 10
27.638437
 20
13.783438
 10
26.941562
 20
13.783438
  0
LWPOLYLINE
  8
0
 62
7
 90
9
 70
1
 10
32.051562
 20
20.955000
 10
32.051562
 20
20.506562
 10
32.748438
 20
20.506562
 10
32.748438
 20
21.403437
 10
32.051562
 20
21.403437
 10
32.051562
 20
20.506562
 10
32.748438
 20
20.506562
 10
32.748438
 20
21.403437
 10
32.051562
 20
21.403437
  0
LWPOLYLINE
  8
0
 62
7
 90
9
 70
1
 10
30.751563
 20
20.955000
 10
30.751563
 20
20.506562
 10
31.448438
 20
20.506562
 10
31.448438
 20
21.403437
 10
30.751563
 20
21.403437
 10
30.751563
 20
20.506562
 10
31.448438
 20
20.506562
 10
31.448438
 20
21.403437
 10
30.751563
 20
21.403437
  0
LWPOLYLINE
  8
0
 62
7
 90
9
 70
1
 10
33.353438
 20
6.350000
 10
33.353438
 20
6.798437
 10
32.656562
 20
6.798437
 10
32.656562
 20
5.901562
 10
33.353438
 20
5.901562
 10
33.353438
 20
6.798437
 10
32.656562
 20
6.798437
 10
32.656562
 20
5.901562
 10
33.353438
 20
5.901562
  0
LWPOLYLINE
  8
0
 62
7
 90
9
 70
1
 10
34.653438
 20
6.350000
 10
34.653438
 20
6.798437
 10
33.956562
 20
6.798437
 10
33.956562
 20
5.901562
 10
34.653438
 20
5.901562
 10
34.653438
 20
6.798437
 10
33.956562
 20
6.798437
 10
33.956562
 20
5.901562
 10
34.653438
 20
5.901562
  0
LWPOLYLINE
  8
0
 62
7
 90
9
 70
1
 10
23.495000
 20
7.953438
 10
23.046563
 20
7.953438
 10
23.046563
 20
7.256563
 10
23.943438
 20
7.256563
 10
23.943438
 20
7.953438
 10
23.046563
 20
7.953438
 10
23.046563
 20
7.256563
 10
23.943438
 20
7.256563
 10
23.943438
 20
7.953438
  0
LWPOLYLINE
  8
0
 62
7
 90
9
 70
1
 10
23.495000
 20
9.253437
 10
23.046563
 20
9.253437
 10
23.046563
 20
8.556563
 10
23.943438
 20
8.556563
 10
23.943438
 20
9.253437
 10
23.046563
 20
9.253437
 10
23.046563
 20
8.556563
 10
23.943438
 20
8.556563
 10
23.943438
 20
9.253437
  0
LWPOLYLINE
  8
0
 62
7
 90
9
 70
1
 10
33.353438
 20
4.445000
 10
33.353438
 20
4.893438
 10
32.656562
 20
4.893438
 10
32.656562
 20
3.996563
 10
33.353438
 20
3.996563
 10
33.353438
 20
4.893438
 10
32.656562
 20
4.893438
 10
32.656562
 20
3.996563
 10
33.353438
 20
3.996563
  0
LWPOLYLINE
  8
0
 62
7
 90
9
 70
1
 10
34.653438
 20
4.445000
 10
34.653438
 20
4.893438
 10
33.956562
 20
4.893438
 10
33.956562
 20
3.996563
 10
34.653438
 20
3.996563
 10
34.653438
 20
4.893438
 10
33.956562
 20
4.893438
 10
33.956562
 20
3.996563
 10
34.653438
 20
3.996563
  0
LWPOLYLINE
  8
0
 62
7
 90
9
 70
1
 10
28.241563
 20
11.430000
 10
28.241563
 20
10.981562
 10
28.938437
 20
10.981562
 10
28.938437
 20
11.878438
 10
28.241563
 20
11.878438
 10
28.241563
 20
10.981562
 10
28.938437
 20
10.981562
 10
28.938437
 20
11.878438
 10
28.241563
 20
11.878438
  0
LWPOLYLINE
  8
0
 62
7
 90
9
 70
1
 10
26.941562
 20
11.430000
 10
26.941562
 20
10.981562
 10
27.638437
 20
10.981562
 10
27.638437
 20
11.878438
 10
26.941562
 20
11.878438
 10
26.941562
 20
10.981562
 10
27.638437
 20
10.981562
 10
27.638437
 20
11.878438
 10
26.941562
 20
11.878438
  0
LWPOLYLINE
  8
0
 62
7
 90
9
 70
1
 10
31.880000
 20
32.548437
 10
31.181562
 20
32.548437
 10
31.181562
 20
30.951563
 10
32.578437
 20
30.951563
 10
32.578437
 20
32.548437
 10
31.181562
 20
32.548437
 10
31.181562
 20
30.951563
 10
32.578437
 20
30.951563
 10
32.578437
 20
32.548437
  0
LWPOLYLINE
  8
0
 62
7
 90
9
 70
1
 10
29.080000
 20
32.548437
 10
28.381562
 20
32.548437
 10
28.381562
 20
30.951563
 10
29.778437
 20
30.951563
 10
29.778437
 20
32.548437
 10
28.381562
 20
32.548437
 10
28.381562
 20
30.951563
 10
29.778437
 20
30.951563
 10
29.778437
 20
32.548437
  0
LWPOLYLINE
  8
0
 62
7
 90
9
 70
1
 10
31.880000
 20
24.928437
 10
31.181562
 20
24.928437
 10
31.181562
 20
23.331563
 10
32.578437
 20
23.331563
 10
32.578437
 20
24.928437
 10
31.181562
 20
24.928437
 10
31.181562
 20
23.331563
 10
32.578437
 20
23.331563
 10
32.578437
 20
24.928437
  0
LWPOLYLINE
  8
0
 62
7
 90
9
 70
1
 10
29.080000
 20
24.928437
 10
28.381562
 20
24.928437
 10
28.381562
 20
23.331563
 10
29.778437
 20
23.331563
 10
29.778437
 20
24.928437
 10
28.381562
 20
24.928437
 10
28.381562
 20
23.331563
 10
29.778437
 20
23.331563
 10
29.778437
 20
24.928437
  0
LWPOLYLINE
  8
0
 62
7
 90
9
 70
1
 10
34.290000
 20
29.543437
 10
33.841563
 20
29.543437
 10
33.841563
 20
28.846563
 10
34.738437
 20
28.846563
 10
34.738437
 20
29.543437
 10
33.841563
 20
29.543437
 10
33.841563
 20
28.846563
 10
34.738437
 20
28.846563
 10
34.738437
 20
29.543437
  0
LWPOLYLINE
  8
0
 62
7
 90
9
 70
1
 10
34.290000
 20
30.843438
 10
33.841563
 20
30.843438
 10
33.841563
 20
30.146563
 10
34.738437
 20
30.146563
 10
34.738437
 20
30.843438
 10
33.841563
 20
30.843438
 10
33.841563
 20
30.146563
 10
34.738437
 20
30.146563
 10
34.738437
 20
30.843438
  0
LWPOLYLINE
  8
0
 62
7
 90
9
 70
1
 10
8.890000
 20
11.731563
 10
9.338438
 20
11.731563
 10
9.338438
 20
12.428437
 10
8.441562
 20
12.428437
 10
8.441562
 20
11.731563
 10
9.338438
 20
11.731563
 10
9.338438
 20
12.428437
 10
8.441562
 20
12.428437
 10
8.441562
 20
11.731563
  0
LWPOLYLINE
  8
0
 62
7
 90
9
 70
1
 10
8.890000
 20
10.431563
 10
9.338438
 20
10.431563
 10
9.338438
 20
11.128437
 10
8.441562
 20
11.128437
 10
8.441562
 20
10.431563
 10
9.338438
 20
10.431563
 10
9.338438
 20
11.128437
 10
8.441562
 20
11.128437
 10
8.441562
 20
10.431563
  0
LWPOLYLINE
  8
0
 62
7
 90
9
 70
1
 10
9.223437
 20
7.620000
 10
9.223437
 20
8.068437
 10
8.526563
 20
8.068437
 10
8.526563
 20
7.171563
 10
9.223437
 20
7.171563
 10
9.223437
 20
8.068437
 10
8.526563
 20
8.068437
 10
8.526563
 20
7.171563
 10
9.223437
 20
7.171563
  0
LWPOLYLINE
  8
0
 62
7
 90
9
 70
1
 10
10.523438
 20
7.620000
 10
10.523438
 20
8.068437
 10
9.826563
 20
8.068437
 10
9.826563
 20
7.171563
 10
10.523438
 20
7.171563
 10
10.523438
 20
8.068437
 10
9.826563
 20
8.068437
 10
9.826563
 20
7.171563
 10
10.523438
 20
7.171563
  0
LWPOLYLINE
  8
0
 62
7
 90
9
 70
1
 10
23.495000
 20
12.366563
 10
23.943438
 20
12.366563
 10
23.943438
 20
13.063437
 10
23.046563
 20
13.063437
 10
23.046563
 20
12.366563
 10
23.943438
 20
12.366563
 10
23.943438
 20
13.063437
 10
23.046563
 20
13.063437
 10
23.046563
 20
12.366563
  0
LWPOLYLINE
  8
0
 62
7
 90
9
 70
1
 10
23.495000
 20
11.066562
 10
23.943438
 20
11.066562
 10
23.943438
 20
11.763437
 10
23.046563
 20
11.763437
 10
23.046563
 20
11.066562
 10
23.943438
 20
11.066562
 10
23.943438
 20
11.763437
 10
23.046563
 20
11.763437
 10
23.046563
 20
11.066562
  0
LWPOLYLINE
  8
0
 62
7
 90
9
 70
1
 10
18.113437
 20
21.590000
 10
18.113437
 20
22.038438
 10
17.416563
 20
22.038438
 10
17.416563
 20
21.141562
 10
18.113437
 20
21.141562
 10
18.113437
 20
22.038438
 10
17.416563
 20
22.038438
 10
17.416563
 20
21.141562
 10
18.113437
 20
21.141562
  0
LWPOLYLINE
  8
0
 62
7
 90
9
 70
1
 10
19.413438
 20
21.590000
 10
19.413438
 20
22.038438
 10
18.716563
 20
22.038438
 10
18.716563
 20
21.141562
 10
19.413438
 20
21.141562
 10
19.413438
 20
22.038438
 10
18.716563
 20
22.038438
 10
18.716563
 20
21.141562
 10
19.413438
 20
21.141562
  0
LWPOLYLINE
  8
0
 62
7
 90
9
 70
1
 10
21.923437
 20
33.020000
 10
21.923437
 20
33.468438
 10
21.226562
 20
33.468438
 10
21.226562
 20
32.571563
 10
21.923437
 20
32.571563
 10
21.923437
 20
33.468438
 10
21.226562
 20
33.468438
 10
21.226562
 20
32.571563
 10
21.923437
 20
32.571563
  0
LWPOLYLINE
  8
0
 62
7
 90
9
 70
1
 10
23.223437
 20
33.020000
 10
23.223437
 20
33.468438
 10
22.526563
 20
33.468438
 10
22.526563
 20
32.571563
 10
23.223437
 20
32.571563
 10
23.223437
 20
33.468438
 10
22.526563
 20
33.468438
 10
22.526563
 20
32.571563
 10
23.223437
 20
32.571563
  0
LWPOLYLINE
  8
0
 62
7
 90
9
 70
1
 10
17.145000
 20
32.051562
 10
17.593438
 20
32.051562
 10
17.593438
 20
32.748438
 10
16.696562
 20
32.748438
 10
16.696562
 20
32.051562
 10
17.593438
 20
32.051562
 10
17.593438
 20
32.748438
 10
16.696562
 20
32.748438
 10
16.696562
 20
32.051562
  0
LWPOLYLINE
  8
0
 62
7
 90
9
 70
1
 10
17.145000
 20
30.751563
 10
17.593438
 20
30.751563
 10
17.593438
 20
31.448438
 10
16.696562
 20
31.448438
 10
16.696562
 20
30.751563
 10
17.593438
 20
30.751563
 10
17.593438
 20
31.448438
 10
16.696562
 20
31.448438
 10
16.696562
 20
30.751563
  0
LWPOLYLINE
  8
0
 62
7
 90
9
 70
1
 10
8.255000
 20
31.448438
 10
7.806563
 20
31.448438
 10
7.806563
 20
30.751563
 10
8.703438
 20
30.751563
 10
8.703438
 20
31.448438
 10
7.806563
 20
31.448438
 10
7.806563
 20
30.751563
 10
8.703438
 20
30.751563
 10
8.703438
 20
31.448438
  0
LWPOLYLINE
  8
0
 62
7
 90
9
 70
1
 10
8.255000
 20
32.748438
 10
7.806563
 20
32.748438
 10
7.806563
 20
32.051562
 10
8.703438
 20
32.051562
 10
8.703438
 20
32.748438
 10
7.806563
 20
32.748438
 10
7.806563
 20
32.051562
 10
8.703438
 20
32.051562
 10
8.703438
 20
32.748438
  0
LWPOLYLINE
  8
0
 62
7
 90
9
 70
1
 10
8.491563
 20
15.990000
 10
8.491563
 20
15.591563
 10
9.288438
 20
15.591563
 10
9.288438
 20
16.388438
 10
8.491563
 20
16.388438
 10
8.491563
 20
15.591563
 10
9.288438
 20
15.591563
 10
9.288438
 20
16.388438
 10
8.491563
 20
16.388438
  0
LWPOLYLINE
  8
0
 62
7
 90
9
 70
1
 10
8.491563
 20
14.490000
 10
8.491563
 20
14.091563
 10
9.288438
 20
14.091563
 10
9.288438
 20
14.888438
 10
8.491563
 20
14.888438
 10
8.491563
 20
14.091563
 10
9.288438
 20
14.091563
 10
9.288438
 20
14.888438
 10
8.491563
 20
14.888438
  0
LWPOLYLINE
  8
0
 62
7
 90
9
 70
1
 10
25.636563
 20
28.690000
 10
25.636563
 20
28.291563
 10
26.433438
 20
28.291563
 10
26.433438
 20
29.088438
 10
25.636563
 20
29.088438
 10
25.636563
 20
28.291563
 10
26.433438
 20
28.291563
 10
26.433438
 20
29.088438
 10
25.636563
 20
29.088438
  0
LWPOLYLINE
  8
0
 62
7
 90
9
 70
1
 10
25.636563
 20
27.190000
 10
25.636563
 20
26.791563
 10
26.433438
 20
26.791563
 10
26.433438
 20
27.588438
 10
25.636563
 20
27.588438
 10
25.636563
 20
26.791563
 10
26.433438
 20
26.791563
 10
26.433438
 20
27.588438
 10
25.636563
 20
27.588438
  0
LWPOLYLINE
  8
0
 62
7
 90
9
 70
1
 10
9.223437
 20
18.415000
 10
9.223437
 20
18.863437
 10
8.526563
 20
18.863437
 10
8.526563
 20
17.966562
 10
9.223437
 20
17.966562
 10
9.223437
 20
18.863437
 10
8.526563
 20
18.863437
 10
8.526563
 20
17.966562
 10
9.223437
 20
17.966562
  0
LWPOLYLINE
  8
0
 62
7
 90
9
 70
1
 10
10.523438
 20
18.415000
 10
10.523438
 20
18.863437
 10
9.826563
 20
18.863437
 10
9.826563
 20
17.966562
 10
10.523438
 20
17.966562
 10
10.523438
 20
18.863437
 10
9.826563
 20
18.863437
 10
9.826563
 20
17.966562
 10
10.523438
 20
17.966562
  0
LWPOLYLINE
  8
0
 62
7
 90
9
 70
1
 10
20.955000
 20
6.683438
 10
20.506562
 20
6.683438
 10
20.506562
 20
5.986562
 10
21.403437
 20
5.986562
 10
21.403437
 20
6.683438
 10
20.506562
 20
6.683438
 10
20.506562
 20
5.986562
 10
21.403437
 20
5.986562
 10
21.403437
 20
6.683438
  0
LWPOLYLINE
  8
0
 62
7
 90
9
 70
1
 10
20.955000
 20
7.983437
 10
20.506562
 20
7.983437
 10
20.506562
 20
7.286562
 10
21.403437
 20
7.286562
 10
21.403437
 20
7.983437
 10
20.506562
 20
7.983437
 10
20.506562
 20
7.286562
 10
21.403437
 20
7.286562
 10
21.403437
 20
7.983437
  0
LWPOLYLINE
  8
0
 62
7
 90
9
 70
1
 10
19.050000
 20
6.683438
 10
18.601562
 20
6.683438
 10
18.601562
 20
5.986562
 10
19.498438
 20
5.986562
 10
19.498438
 20
6.683438
 10
18.601562
 20
6.683438
 10
18.601562
 20
5.986562
 10
19.498438
 20
5.986562
 10
19.498438
 20
6.683438
  0
LWPOLYLINE
  8
0
 62
7
 90
9
 70
1
 10
19.050000
 20
7.983437
 10
18.601562
 20
7.983437
 10
18.601562
 20
7.286562
 10
19.498438
 20
7.286562
 10
19.498438
 20
7.983437
 10
18.601562
 20
7.983437
 10
18.601562
 20
7.286562
 10
19.498438
 20
7.286562
 10
19.498438
 20
7.983437
  0
LWPOLYLINE
  8
0
 62
7
 90
9
 70
1
 10
26.035000
 20
31.448438
 10
25.586562
 20
31.448438
 10
25.586562
 20
30.751563
 10
26.483438
 20
30.751563
 10
26.483438
 20
31.448438
 10
25.586562
 20
31.448438
 10
25.586562
 20
30.751563
 10
26.483438
 20
30.751563
 10
26.483438
 20
31.448438
  0
LWPOLYLINE
  8
0
 62
7
 90
9
 70
1
 10
26.035000
 20
32.748438
 10
25.586562
 20
32.748438
 10
25.586562
 20
32.051562
 10
26.483438
 20
32.051562
 10
26.483438
 20
32.748438
 10
25.586562
 20
32.748438
 10
25.586562
 20
32.051562
 10
26.483438
 20
32.051562
 10
26.483438
 20
32.748438
  0
LWPOLYLINE
  8
0
 62
7
 90
9
 70
1
 10
13.033437
 20
7.620000
 10
13.033437
 20
8.068437
 10
12.336563
 20
8.068437
 10
12.336563
 20
7.171563
 10
13.033437
 20
7.171563
 10
13.033437
 20
8.068437
 10
12.336563
 20
8.068437
 10
12.336563
 20
7.171563
 10
13.033437
 20
7.171563
  0
LWPOLYLINE
  8
0
 62
7
 90
9
 70
1
 10
14.333437
 20
7.620000
 10
14.333437
 20
8.068437
 10
13.636563
 20
8.068437
 10
13.636563
 20
7.171563
 10
14.333437
 20
7.171563
 10
14.333437
 20
8.068437
 10
13.636563
 20
8.068437
 10
13.636563
 20
7.171563
 10
14.333437
 20
7.171563
  0
LWPOLYLINE
  8
0
 62
7
 90
9
 70
1
 10
26.035000
 20
25.066562
 10
26.483438
 20
25.066562
 10
26.483438
 20
25.763437
 10
25.586562
 20
25.763437
 10
25.586562
 20
25.066562
 10
26.483438
 20
25.066562
 10
26.483438
 20
25.763437
 10
25.586562
 20
25.763437
 10
25.586562
 20
25.066562
  0
LWPOLYLINE
  8
0
 62
7
 90
9
 70
1
 10
26.035000
 20
23.766562
 10
26.483438
 20
23.766562
 10
26.483438
 20
24.463437
 10
25.586562
 20
24.463437
 10
25.586562
 20
23.766562
 10
26.483438
 20
23.766562
 10
26.483438
 20
24.463437
 10
25.586562
 20
24.463437
 10
25.586562
 20
23.766562
  0
LWPOLYLINE
  8
0
 62
7
 90
9
 70
1
 10
17.145000
 20
25.701563
 10
17.593438
 20
25.701563
 10
17.593438
 20
26.398438
 10
16.696562
 20
26.398438
 10
16.696562
 20
25.701563
 10
17.593438
 20
25.701563
 10
17.593438
 20
26.398438
 10
16.696562
 20
26.398438
 10
16.696562
 20
25.701563
  0
LWPOLYLINE
  8
0
 62
7
 90
9
 70
1
 10
17.145000
 20
24.401563
 10
17.593438
 20
24.401563
 10
17.593438
 20
25.098437
 10
16.696562
 20
25.098437
 10
16.696562
 20
24.401563
 10
17.593438
 20
24.401563
 10
17.593438
 20
25.098437
 10
16.696562
 20
25.098437
 10
16.696562
 20
24.401563
  0
LWPOLYLINE
  8
0
 62
7
 90
9
 70
1
 10
9.826563
 20
20.320000
 10
9.826563
 20
19.871562
 10
10.523438
 20
19.871562
 10
10.523438
 20
20.768438
 10
9.826563
 20
20.768438
 10
9.826563
 20
19.871562
 10
10.523438
 20
19.871562
 10
10.523438
 20
20.768438
 10
9.826563
 20
20.768438
  0
LWPOLYLINE
  8
0
 62
7
 90
9
 70
1
 10
8.526563
 20
20.320000
 10
8.526563
 20
19.871562
 10
9.223437
 20
19.871562
 10
9.223437
 20
20.768438
 10
8.526563
 20
20.768438
 10
8.526563
 20
19.871562
 10
9.223437
 20
19.871562
 10
9.223437
 20
20.768438
 10
8.526563
 20
20.768438
  0
LWPOLYLINE
  8
0
 62
7
 90
9
 70
1
 10
22.526563
 20
21.590000
 10
22.526563
 20
21.141562
 10
23.223437
 20
21.141562
 10
23.223437
 20
22.038438
 10
22.526563
 20
22.038438
 10
22.526563
 20
21.141562
 10
23.223437
 20
21.141562
 10
23.223437
 20
22.038438
 10
22.526563
 20
22.038438
  0
LWPOLYLINE
  8
0
 62
7
 90
9
 70
1
 10
21.226562
 20
21.590000
 10
21.226562
 20
21.141562
 10
21.923437
 20
21.141562
 10
21.923437
 20
22.038438
 10
21.226562
 20
22.038438
 10
21.226562
 20
21.141562
 10
21.923437
 20
21.141562
 10
21.923437
 20
22.038438
 10
21.226562
 20
22.038438
  0
LWPOLYLINE
  8
0
 62
7
 90
9
 70
1
 10
20.169163
 20
11.805000
 10
20.169163
 20
11.527162
 10
21.436038
 20
11.527162
 10
21.436038
 20
12.082838
 10
20.169163
 20
12.082838
 10
20.169163
 20
11.527162
 10
21.436038
 20
11.527162
 10
21.436038
 20
12.082838
 10
20.169163
 20
12.082838
  0
LWPOLYLINE
  8
0
 62
7
 90
9
 70
1
 10
20.169163
 20
12.605000
 10
20.169163
 20
12.327163
 10
21.436038
 20
12.327163
 10
21.436038
 20
12.882838
 10
20.169163
 20
12.882838
 10
20.169163
 20
12.327163
 10
21.436038
 20
12.327163
 10
21.436038
 20
12.882838
 10
20.169163
 20
12.882838
  0
LWPOLYLINE
  8
0
 62
7
 90
9
 70
1
 10
20.169163
 20
13.405000
 10
20.169163
 20
13.127162
 10
21.436038
 20
13.127162
 10
21.436038
 20
13.682837
 10
20.169163
 20
13.682837
 10
20.169163
 20
13.127162
 10
21.436038
 20
13.127162
 10
21.436038
 20
13.682837
 10
20.169163
 20
13.682837
  0
LWPOLYLINE
  8
0
 62
7
 90
9
 70
1
 10
20.169163
 20
14.205000
 10
20.169163
 20
13.927162
 10
21.436038
 20
13.927162
 10
21.436038
 20
14.482838
 10
20.169163
 20
14.482838
 10
20.169163
 20
13.927162
 10
21.436038
 20
13.927162
 10
21.436038
 20
14.482838
 10
20.169163
 20
14.482838
  0
LWPOLYLINE
  8
0
 62
7
 90
9
 70
1
 10
20.169163
 20
15.005000
 10
20.169163
 20
14.727163
 10
21.436038
 20
14.727163
 10
21.436038
 20
15.282838
 10
20.169163
 20
15.282838
 10
20.169163
 20
14.727163
 10
21.436038
 20
14.727163
 10
21.436038
 20
15.282838
 10
20.169163
 20
15.282838
  0
LWPOLYLINE
  8
0
 62
7
 90
9
 70
1
 10
20.169163
 20
15.805000
 10
20.169163
 20
15.527162
 10
21.436038
 20
15.527162
 10
21.436038
 20
16.082838
 10
20.169163
 20
16.082838
 10
20.169163
 20
15.527162
 10
21.436038
 20
15.527162
 10
21.436038
 20
16.082838
 10
20.169163
 20
16.082838
  0
LWPOLYLINE
  8
0
 62
7
 90
9
 70
1
 10
20.169163
 20
16.605000
 10
20.169163
 20
16.327163
 10
21.436038
 20
16.327163
 10
21.436038
 20
16.882838
 10
20.169163
 20
16.882838
 10
20.169163
 20
16.327163
 10
21.436038
 20
16.327163
 10
21.436038
 20
16.882838
 10
20.169163
 20
16.882838
  0
LWPOLYLINE
  8
0
 62
7
 90
9
 70
1
 10
20.169163
 20
17.405000
 10
20.169163
 20
17.127163
 10
21.436038
 20
17.127163
 10
21.436038
 20
17.682838
 10
20.169163
 20
17.682838
 10
20.169163
 20
17.127163
 10
21.436038
 20
17.127163
 10
21.436038
 20
17.682838
 10
20.169163
 20
17.682838
  0
LWPOLYLINE
  8
0
 62
7
 90
9
 70
1
 10
19.032162
 20
18.897600
 10
19.032162
 20
18.264163
 10
19.587837
 20
18.264163
 10
19.587837
 20
19.531038
 10
19.032162
 20
19.531038
 10
19.032162
 20
18.264163
 10
19.587837
 20
18.264163
 10
19.587837
 20
19.531038
 10
19.032162
 20
19.531038
  0
LWPOLYLINE
  8
0
 62
7
 90
9
 70
1
 10
18.232163
 20
18.897600
 10
18.232163
 20
18.264163
 10
18.787838
 20
18.264163
 10
18.787838
 20
19.531038
 10
18.232163
 20
19.531038
 10
18.232163
 20
18.264163
 10
18.787838
 20
18.264163
 10
18.787838
 20
19.531038
 10
18.232163
 20
19.531038
  0
LWPOLYLINE
  8
0
 62
7
 90
9
 70
1
 10
17.432163
 20
18.897600
 10
17.432163
 20
18.264163
 10
17.987838
 20
18.264163
 10
17.987838
 20
19.531038
 10
17.432163
 20
19.531038
 10
17.432163
 20
18.264163
 10
17.987838
 20
18.264163
 10
17.987838
 20
19.531038
 10
17.432163
 20
19.531038
  0
LWPOLYLINE
  8
0
 62
7
 90
9
 70
1
 10
16.632162
 20
18.897600
 10
16.632162
 20
18.264163
 10
17.187838
 20
18.264163
 10
17.187838
 20
19.531038
 10
16.632162
 20
19.531038
 10
16.632162
 20
18.264163
 10
17.187838
 20
18.264163
 10
17.187838
 20
19.531038
 10
16.632162
 20
19.531038
  0
LWPOLYLINE
  8
0
 62
7
 90
9
 70
1
 10
15.832162
 20
18.897600
 10
15.832162
 20
18.264163
 10
16.387837
 20
18.264163
 10
16.387837
 20
19.531038
 10
15.832162
 20
19.531038
 10
15.832162
 20
18.264163
 10
16.387837
 20
18.264163
 10
16.387837
 20
19.531038
 10
15.832162
 20
19.531038
  0
LWPOLYLINE
  8
0
 62
7
 90
9
 70
1
 10
15.032163
 20
18.897600
 10
15.032163
 20
18.264163
 10
15.587838
 20
18.264163
 10
15.587838
 20
19.531038
 10
15.032163
 20
19.531038
 10
15.032163
 20
18.264163
 10
15.587838
 20
18.264163
 10
15.587838
 20
19.531038
 10
15.032163
 20
19.531038
  0
LWPOLYLINE
  8
0
 62
7
 90
9
 70
1
 10
14.232162
 20
18.897600
 10
14.232162
 20
18.264163
 10
14.787838
 20
18.264163
 10
14.787838
 20
19.531038
 10
14.232162
 20
19.531038
 10
14.232162
 20
18.264163
 10
14.787838
 20
18.264163
 10
14.787838
 20
19.531038
 10
14.232162
 20
19.531038
  0
LWPOLYLINE
  8
0
 62
7
 90
9
 70
1
 10
13.432163
 20
18.897600
 10
13.432163
 20
18.264163
 10
13.987838
 20
18.264163
 10
13.987838
 20
19.531038
 10
13.432163
 20
19.531038
 10
13.432163
 20
18.264163
 10
13.987838
 20
18.264163
 10
13.987838
 20
19.531038
 10
13.432163
 20
19.531038
  0
LWPOLYLINE
  8
0
 62
7
 90
9
 70
1
 10
11.583963
 20
17.405000
 10
11.583963
 20
17.127163
 10
12.850837
 20
17.127163
 10
12.850837
 20
17.682838
 10
11.583963
 20
17.682838
 10
11.583963
 20
17.127163
 10
12.850837
 20
17.127163
 10
12.850837
 20
17.682838
 10
11.583963
 20
17.682838
  0
LWPOLYLINE
  8
0
 62
7
 90
9
 70
1
 10
11.583963
 20
16.605000
 10
11.583963
 20
16.327163
 10
12.850837
 20
16.327163
 10
12.850837
 20
16.882838
 10
11.583963
 20
16.882838
 10
11.583963
 20
16.327163
 10
12.850837
 20
16.327163
 10
12.850837
 20
16.882838
 10
11.583963
 20
16.882838
  0
LWPOLYLINE
  8
0
 62
7
 90
9
 70
1
 10
11.583963
 20
15.805000
 10
11.583963
 20
15.527162
 10
12.850837
 20
15.527162
 10
12.850837
 20
16.082838
 10
11.583963
 20
16.082838
 10
11.583963
 20
15.527162
 10
12.850837
 20
15.527162
 10
12.850837
 20
16.082838
 10
11.583963
 20
16.082838
  0
LWPOLYLINE
  8
0
 62
7
 90
9
 70
1
 10
11.583963
 20
15.005000
 10
11.583963
 20
14.727163
 10
12.850837
 20
14.727163
 10
12.850837
 20
15.282838
 10
11.583963
 20
15.282838
 10
11.583963
 20
14.727163
 10
12.850837
 20
14.727163
 10
12.850837
 20
15.282838
 10
11.583963
 20
15.282838
  0
LWPOLYLINE
  8
0
 62
7
 90
9
 70
1
 10
11.583963
 20
14.205000
 10
11.583963
 20
13.927162
 10
12.850837
 20
13.927162
 10
12.850837
 20
14.482838
 10
11.583963
 20
14.482838
 10
11.583963
 20
13.927162
 10
12.850837
 20
13.927162
 10
12.850837
 20
14.482838
 10
11.583963
 20
14.482838
  0
LWPOLYLINE
  8
0
 62
7
 90
9
 70
1
 10
11.583963
 20
13.405000
 10
11.583963
 20
13.127162
 10
12.850837
 20
13.127162
 10
12.850837
 20
13.682837
 10
11.583963
 20
13.682837
 10
11.583963
 20
13.127162
 10
12.850837
 20
13.127162
 10
12.850837
 20
13.682837
 10
11.583963
 20
13.682837
  0
LWPOLYLINE
  8
0
 62
7
 90
9
 70
1
 10
11.583963
 20
12.605000
 10
11.583963
 20
12.327163
 10
12.850837
 20
12.327163
 10
12.850837
 20
12.882838
 10
11.583963
 20
12.882838
 10
11.583963
 20
12.327163
 10
12.850837
 20
12.327163
 10
12.850837
 20
12.882838
 10
11.583963
 20
12.882838
  0
LWPOLYLINE
  8
0
 62
7
 90
9
 70
1
 10
11.583963
 20
11.805000
 10
11.583963
 20
11.527162
 10
12.850837
 20
11.527162
 10
12.850837
 20
12.082838
 10
11.583963
 20
12.082838
 10
11.583963
 20
11.527162
 10
12.850837
 20
11.527162
 10
12.850837
 20
12.082838
 10
11.583963
 20
12.082838
  0
LWPOLYLINE
  8
0
 62
7
 90
9
 70
1
 10
13.432163
 20
10.312400
 10
13.432163
 20
9.678963
 10
13.987838
 20
9.678963
 10
13.987838
 20
10.945837
 10
13.432163
 20
10.945837
 10
13.432163
 20
9.678963
 10
13.987838
 20
9.678963
 10
13.987838
 20
10.945837
 10
13.432163
 20
10.945837
  0
LWPOLYLINE
  8
0
 62
7
 90
9
 70
1
 10
14.232162
 20
10.312400
 10
14.232162
 20
9.678963
 10
14.787838
 20
9.678963
 10
14.787838
 20
10.945837
 10
14.232162
 20
10.945837
 10
14.232162
 20
9.678963
 10
14.787838
 20
9.678963
 10
14.787838
 20
10.945837
 10
14.232162
 20
10.945837
  0
LWPOLYLINE
  8
0
 62
7
 90
9
 70
1
 10
15.032163
 20
10.312400
 10
15.032163
 20
9.678963
 10
15.587838
 20
9.678963
 10
15.587838
 20
10.945837
 10
15.032163
 20
10.945837
 10
15.032163
 20
9.678963
 10
15.587838
 20
9.678963
 10
15.587838
 20
10.945837
 10
15.032163
 20
10.945837
  0
LWPOLYLINE
  8
0
 62
7
 90
9
 70
1
 10
15.832162
 20
10.312400
 10
15.832162
 20
9.678963
 10
16.387837
 20
9.678963
 10
16.387837
 20
10.945837
 10
15.832162
 20
10.945837
 10
15.832162
 20
9.678963
 10
16.387837
 20
9.678963
 10
16.387837
 20
10.945837
 10
15.832162
 20
10.945837
  0
LWPOLYLINE
  8
0
 62
7
 90
9
 70
1
 10
16.632162
 20
10.312400
 10
16.632162
 20
9.678963
 10
17.187838
 20
9.678963
 10
17.187838
 20
10.945837
 10
16.632162
 20
10.945837
 10
16.632162
 20
9.678963
 10
17.187838
 20
9.678963
 10
17.187838
 20
10.945837
 10
16.632162
 20
10.945837
  0
LWPOLYLINE
  8
0
 62
7
 90
9
 70
1
 10
17.432163
 20
10.312400
 10
17.432163
 20
9.678963
 10
17.987838
 20
9.678963
 10
17.987838
 20
10.945837
 10
17.432163
 20
10.945837
 10
17.432163
 20
9.678963
 10
17.987838
 20
9.678963
 10
17.987838
 20
10.945837
 10
17.432163
 20
10.945837
  0
LWPOLYLINE
  8
0
 62
7
 90
9
 70
1
 10
18.232163
 20
10.312400
 10
18.232163
 20
9.678963
 10
18.787838
 20
9.678963
 10
18.787838
 20
10.945837
 10
18.232163
 20
10.945837
 10
18.232163
 20
9.678963
 10
18.787838
 20
9.678963
 10
18.787838
 20
10.945837
 10
18.232163
 20
10.945837
  0
LWPOLYLINE
  8
0
 62
7
 90
9
 70
1
 10
19.032162
 20
10.312400
 10
19.032162
 20
9.678963
 10
19.587837
 20
9.678963
 10
19.587837
 20
10.945837
 10
19.032162
 20
10.945837
 10
19.032162
 20
9.678963
 10
19.587837
 20
9.678963
 10
19.587837
 20
10.945837
 10
19.032162
 20
10.945837
  0
LWPOLYLINE
  8
0
 62
7
 90
9
 70
1
 10
29.179900
 20
28.616563
 10
29.778337
 20
28.616563
 10
29.778337
 20
29.163438
 10
28.581463
 20
29.163438
 10
28.581463
 20
28.616563
 10
29.778337
 20
28.616563
 10
29.778337
 20
29.163438
 10
28.581463
 20
29.163438
 10
28.581463
 20
28.616563
  0
LWPOLYLINE
  8
0
 62
7
 90
9
 70
1
 10
29.179900
 20
27.666563
 10
29.778337
 20
27.666563
 10
29.778337
 20
28.213438
 10
28.581463
 20
28.213438
 10
28.581463
 20
27.666563
 10
29.778337
 20
27.666563
 10
29.778337
 20
28.213438
 10
28.581463
 20
28.213438
 10
28.581463
 20
27.666563
  0
LWPOLYLINE
  8
0
 62
7
 90
9
 70
1
 10
29.179900
 20
26.716562
 10
29.778337
 20
26.716562
 10
29.778337
 20
27.263437
 10
28.581463
 20
27.263437
 10
28.581463
 20
26.716562
 10
29.778337
 20
26.716562
 10
29.778337
 20
27.263437
 10
28.581463
 20
27.263437
 10
28.581463
 20
26.716562
  0
LWPOLYLINE
  8
0
 62
7
 90
9
 70
1
 10
31.780100
 20
26.716562
 10
32.378538
 20
26.716562
 10
32.378538
 20
27.263437
 10
31.181663
 20
27.263437
 10
31.181663
 20
26.716562
 10
32.378538
 20
26.716562
 10
32.378538
 20
27.263437
 10
31.181663
 20
27.263437
 10
31.181663
 20
26.716562
  0
LWPOLYLINE
  8
0
 62
7
 90
9
 70
1
 10
31.780100
 20
28.616563
 10
32.378538
 20
28.616563
 10
32.378538
 20
29.163438
 10
31.181663
 20
29.163438
 10
31.181663
 20
28.616563
 10
32.378538
 20
28.616563
 10
32.378538
 20
29.163438
 10
31.181663
 20
29.163438
 10
31.181663
 20
28.616563
  0
LWPOLYLINE
  8
0
 62
7
 90
9
 70
1
 10
38.141562
 20
10.825100
 10
38.141562
 20
10.226663
 10
38.688437
 20
10.226663
 10
38.688437
 20
11.423538
 10
38.141562
 20
11.423538
 10
38.141562
 20
10.226663
 10
38.688437
 20
10.226663
 10
38.688437
 20
11.423538
 10
38.141562
 20
11.423538
  0
LWPOLYLINE
  8
0
 62
7
 90
9
 70
1
 10
37.191563
 20
10.825100
 10
37.191563
 20
10.226663
 10
37.738438
 20
10.226663
 10
37.738438
 20
11.423538
 10
37.191563
 20
11.423538
 10
37.191563
 20
10.226663
 10
37.738438
 20
10.226663
 10
37.738438
 20
11.423538
 10
37.191563
 20
11.423538
  0
LWPOLYLINE
  8
0
 62
7
 90
9
 70
1
 10
36.241563
 20
10.825100
 10
36.241563
 20
10.226663
 10
36.788438
 20
10.226663
 10
36.788438
 20
11.423538
 10
36.241563
 20
11.423538
 10
36.241563
 20
10.226663
 10
36.788438
 20
10.226663
 10
36.788438
 20
11.423538
 10
36.241563
 20
11.423538
  0
LWPOLYLINE
  8
0
 62
7
 90
9
 70
1
 10
36.241563
 20
8.224900
 10
36.241563
 20
7.626462
 10
36.788438
 20
7.626462
 10
36.788438
 20
8.823337
 10
36.241563
 20
8.823337
 10
36.241563
 20
7.626462
 10
36.788438
 20
7.626462
 10
36.788438
 20
8.823337
 10
36.241563
 20
8.823337
  0
LWPOLYLINE
  8
0
 62
7
 90
9
 70
1
 10
38.141562
 20
8.224900
 10
38.141562
 20
7.626462
 10
38.688437
 20
7.626462
 10
38.688437
 20
8.823337
 10
38.141562
 20
8.823337
 10
38.141562
 20
7.626462
 10
38.688437
 20
7.626462
 10
38.688437
 20
8.823337
 10
38.141562
 20
8.823337
  0
LWPOLYLINE
  8
0
 62
7
 90
9
 70
1
 10
26.683300
 20
3.777363
 10
26.808737
 20
3.777363
 10
26.808737
 20
4.790237
 10
26.557862
 20
4.790237
 10
26.557862
 20
3.777363
 10
26.808737
 20
3.777363
 10
26.808737
 20
4.790237
 10
26.557862
 20
4.790237
 10
26.557862
 20
3.777363
  0
LWPOLYLINE
  8
0
 62
7
 90
9
 70
1
 10
27.190400
 20
3.777363
 10
27.315838
 20
3.777363
 10
27.315838
 20
4.790237
 10
27.064963
 20
4.790237
 10
27.064963
 20
3.777363
 10
27.315838
 20
3.777363
 10
27.315838
 20
4.790237
 10
27.064963
 20
4.790237
 10
27.064963
 20
3.777363
  0
LWPOLYLINE
  8
0
 62
7
 90
9
 70
1
 10
27.692500
 20
3.777363
 10
27.817937
 20
3.777363
 10
27.817937
 20
4.790237
 10
27.567062
 20
4.790237
 10
27.567062
 20
3.777363
 10
27.817937
 20
3.777363
 10
27.817937
 20
4.790237
 10
27.567062
 20
4.790237
 10
27.567062
 20
3.777363
  0
LWPOLYLINE
  8
0
 62
7
 90
9
 70
1
 10
28.227500
 20
3.777363
 10
28.352937
 20
3.777363
 10
28.352937
 20
4.790237
 10
28.102062
 20
4.790237
 10
28.102062
 20
3.777363
 10
28.352937
 20
3.777363
 10
28.352937
 20
4.790237
 10
28.102062
 20
4.790237
 10
28.102062
 20
3.777363
  0
LWPOLYLINE
  8
0
 62
7
 90
9
 70
1
 10
28.732100
 20
3.777363
 10
28.857537
 20
3.777363
 10
28.857537
 20
4.790237
 10
28.606662
 20
4.790237
 10
28.606662
 20
3.777363
 10
28.857537
 20
3.777363
 10
28.857537
 20
4.790237
 10
28.606662
 20
4.790237
 10
28.606662
 20
3.777363
  0
LWPOLYLINE
  8
0
 62
7
 90
9
 70
1
 10
29.236700
 20
3.777363
 10
29.362137
 20
3.777363
 10
29.362137
 20
4.790237
 10
29.111262
 20
4.790237
 10
29.111262
 20
3.777363
 10
29.362137
 20
3.777363
 10
29.362137
 20
4.790237
 10
29.111262
 20
4.790237
 10
29.111262
 20
3.777363
  0
LWPOLYLINE
  8
0
 62
7
 90
9
 70
1
 10
29.555162
 20
5.083300
 10
29.555162
 20
4.957863
 10
30.568037
 20
4.957863
 10
30.568037
 20
5.208738
 10
29.555162
 20
5.208738
 10
29.555162
 20
4.957863
 10
30.568037
 20
4.957863
 10
30.568037
 20
5.208738
 10
29.555162
 20
5.208738
  0
LWPOLYLINE
  8
0
 62
7
 90
9
 70
1
 10
29.555162
 20
5.587900
 10
29.555162
 20
5.462462
 10
30.568037
 20
5.462462
 10
30.568037
 20
5.713338
 10
29.555162
 20
5.713338
 10
29.555162
 20
5.462462
 10
30.568037
 20
5.462462
 10
30.568037
 20
5.713338
 10
29.555162
 20
5.713338
  0
LWPOLYLINE
  8
0
 62
7
 90
9
 70
1
 10
29.555162
 20
6.092500
 10
29.555162
 20
5.967062
 10
30.568037
 20
5.967062
 10
30.568037
 20
6.217938
 10
29.555162
 20
6.217938
 10
29.555162
 20
5.967062
 10
30.568037
 20
5.967062
 10
30.568037
 20
6.217938
 10
29.555162
 20
6.217938
  0
LWPOLYLINE
  8
0
 62
7
 90
9
 70
1
 10
29.555162
 20
6.627500
 10
29.555162
 20
6.502063
 10
30.568037
 20
6.502063
 10
30.568037
 20
6.752938
 10
29.555162
 20
6.752938
 10
29.555162
 20
6.502063
 10
30.568037
 20
6.502063
 10
30.568037
 20
6.752938
 10
29.555162
 20
6.752938
  0
LWPOLYLINE
  8
0
 62
7
 90
9
 70
1
 10
29.555162
 20
7.129600
 10
29.555162
 20
7.004162
 10
30.568037
 20
7.004162
 10
30.568037
 20
7.255038
 10
29.555162
 20
7.255038
 10
29.555162
 20
7.004162
 10
30.568037
 20
7.004162
 10
30.568037
 20
7.255038
 10
29.555162
 20
7.255038
  0
LWPOLYLINE
  8
0
 62
7
 90
9
 70
1
 10
29.555162
 20
7.636700
 10
29.555162
 20
7.511262
 10
30.568037
 20
7.511262
 10
30.568037
 20
7.762138
 10
29.555162
 20
7.762138
 10
29.555162
 20
7.511262
 10
30.568037
 20
7.511262
 10
30.568037
 20
7.762138
 10
29.555162
 20
7.762138
  0
LWPOLYLINE
  8
0
 62
7
 90
9
 70
1
 10
29.236700
 20
7.929762
 10
29.362137
 20
7.929762
 10
29.362137
 20
8.942638
 10
29.111262
 20
8.942638
 10
29.111262
 20
7.929762
 10
29.362137
 20
7.929762
 10
29.362137
 20
8.942638
 10
29.111262
 20
8.942638
 10
29.111262
 20
7.929762
  0
LWPOLYLINE
  8
0
 62
7
 90
9
 70
1
 10
28.732100
 20
7.929762
 10
28.857537
 20
7.929762
 10
28.857537
 20
8.942638
 10
28.606662
 20
8.942638
 10
28.606662
 20
7.929762
 10
28.857537
 20
7.929762
 10
28.857537
 20
8.942638
 10
28.606662
 20
8.942638
 10
28.606662
 20
7.929762
  0
LWPOLYLINE
  8
0
 62
7
 90
9
 70
1
 10
28.227500
 20
7.929762
 10
28.352937
 20
7.929762
 10
28.352937
 20
8.942638
 10
28.102062
 20
8.942638
 10
28.102062
 20
7.929762
 10
28.352937
 20
7.929762
 10
28.352937
 20
8.942638
 10
28.102062
 20
8.942638
 10
28.102062
 20
7.929762
  0
LWPOLYLINE
  8
0
 62
7
 90
9
 70
1
 10
27.692500
 20
7.929762
 10
27.817937
 20
7.929762
 10
27.817937
 20
8.942638
 10
27.567062
 20
8.942638
 10
27.567062
 20
7.929762
 10
27.817937
 20
7.929762
 10
27.817937
 20
8.942638
 10
27.567062
 20
8.942638
 10
27.567062
 20
7.929762
  0
LWPOLYLINE
  8
0
 62
7
 90
9
 70
1
 10
27.190400
 20
7.929762
 10
27.315838
 20
7.929762
 10
27.315838
 20
8.942638
 10
27.064963
 20
8.942638
 10
27.064963
 20
7.929762
 10
27.315838
 20
7.929762
 10
27.315838
 20
8.942638
 10
27.064963
 20
8.942638
 10
27.064963
 20
7.929762
  0
LWPOLYLINE
  8
0
 62
7
 90
9
 70
1
 10
26.683300
 20
7.929762
 10
26.808737
 20
7.929762
 10
26.808737
 20
8.942638
 10
26.557862
 20
8.942638
 10
26.557862
 20
7.929762
 10
26.808737
 20
7.929762
 10
26.808737
 20
8.942638
 10
26.557862
 20
8.942638
 10
26.557862
 20
7.929762
  0
LWPOLYLINE
  8
0
 62
7
 90
9
 70
1
 10
25.351962
 20
7.636700
 10
25.351962
 20
7.511262
 10
26.364838
 20
7.511262
 10
26.364838
 20
7.762138
 10
25.351962
 20
7.762138
 10
25.351962
 20
7.511262
 10
26.364838
 20
7.511262
 10
26.364838
 20
7.762138
 10
25.351962
 20
7.762138
  0
LWPOLYLINE
  8
0
 62
7
 90
9
 70
1
 10
25.351962
 20
7.129600
 10
25.351962
 20
7.004162
 10
26.364838
 20
7.004162
 10
26.364838
 20
7.255038
 10
25.351962
 20
7.255038
 10
25.351962
 20
7.004162
 10
26.364838
 20
7.004162
 10
26.364838
 20
7.255038
 10
25.351962
 20
7.255038
  0
LWPOLYLINE
  8
0
 62
7
 90
9
 70
1
 10
25.351962
 20
6.627500
 10
25.351962
 20
6.502063
 10
26.364838
 20
6.502063
 10
26.364838
 20
6.752938
 10
25.351962
 20
6.752938
 10
25.351962
 20
6.502063
 10
26.364838
 20
6.502063
 10
26.364838
 20
6.752938
 10
25.351962
 20
6.752938
  0
LWPOLYLINE
  8
0
 62
7
 90
9
 70
1
 10
25.351962
 20
6.092500
 10
25.351962
 20
5.967062
 10
26.364838
 20
5.967062
 10
26.364838
 20
6.217938
 10
25.351962
 20
6.217938
 10
25.351962
 20
5.967062
 10
26.364838
 20
5.967062
 10
26.364838
 20
6.217938
 10
25.351962
 20
6.217938
  0
LWPOLYLINE
  8
0
 62
7
 90
9
 70
1
 10
25.351962
 20
5.587900
 10
25.351962
 20
5.462462
 10
26.364838
 20
5.462462
 10
26.364838
 20
5.713338
 10
25.351962
 20
5.713338
 10
25.351962
 20
5.462462
 10
26.364838
 20
5.462462
 10
26.364838
 20
5.713338
 10
25.351962
 20
5.713338
  0
LWPOLYLINE
  8
0
 62
7
 90
9
 70
1
 10
25.351962
 20
5.083300
 10
25.351962
 20
4.957863
 10
26.364838
 20
4.957863
 10
26.364838
 20
5.208738
 10
25.351962
 20
5.208738
 10
25.351962
 20
4.957863
 10
26.364838
 20
4.957863
 10
26.364838
 20
5.208738
 10
25.351962
 20
5.208738
  0
LWPOLYLINE
  8
0
 62
7
 90
9
 70
1
  0
LWPOLYLINE
  8
0
 62
7
 90
9
 70
1
 10
27.368500
 20
5.992838
 10
27.128763
 20
5.992838
 10
27.128763
 20
5.513362
 10
27.608238
 20
5.513362
 10
27.608238
 20
5.992838
 10
27.128763
 20
5.992838
 10
27.128763
 20
5.513362
 10
27.608238
 20
5.513362
 10
27.608238
 20
5.992838
  0
LWPOLYLINE
  8
0
 62
7
 90
9
 70
1
  0
LWPOLYLINE
  8
0
 62
7
 90
9
 70
1
 10
27.368500
 20
7.262838
 10
27.128763
 20
7.262838
 10
27.128763
 20
6.783362
 10
27.608238
 20
6.783362
 10
27.608238
 20
7.262838
 10
27.128763
 20
7.262838
 10
27.128763
 20
6.783362
 10
27.608238
 20
6.783362
 10
27.608238
 20
7.262838
  0
LWPOLYLINE
  8
0
 62
7
 90
9
 70
1
  0
LWPOLYLINE
  8
0
 62
7
 90
9
 70
1
 10
28.575000
 20
6.005537
 10
28.335262
 20
6.005537
 10
28.335262
 20
5.526062
 10
28.814737
 20
5.526062
 10
28.814737
 20
6.005537
 10
28.335262
 20
6.005537
 10
28.335262
 20
5.526062
 10
28.814737
 20
5.526062
 10
28.814737
 20
6.005537
  0
LWPOLYLINE
  8
0
 62
7
 90
9
 70
1
  0
LWPOLYLINE
  8
0
 62
7
 90
9
 70
1
 10
28.575000
 20
7.224738
 10
28.335262
 20
7.224738
 10
28.335262
 20
6.745262
 10
28.814737
 20
6.745262
 10
28.814737
 20
7.224738
 10
28.335262
 20
7.224738
 10
28.335262
 20
6.745262
 10
28.814737
 20
6.745262
 10
28.814737
 20
7.224738
  0
LWPOLYLINE
  8
0
 62
7
 90
9
 70
1
 10
32.796563
 20
15.760000
 10
32.796563
 20
15.621562
 10
33.443437
 20
15.621562
 10
33.443437
 20
15.898438
 10
32.796563
 20
15.898438
 10
32.796563
 20
15.621562
 10
33.443437
 20
15.621562
 10
33.443437
 20
15.898438
 10
32.796563
 20
15.898438
  0
LWPOLYLINE
  8
0
 62
7
 90
9
 70
1
 10
32.796563
 20
16.260000
 10
32.796563
 20
16.121563
 10
33.443437
 20
16.121563
 10
33.443437
 20
16.398438
 10
32.796563
 20
16.398438
 10
32.796563
 20
16.121563
 10
33.443437
 20
16.121563
 10
33.443437
 20
16.398438
 10
32.796563
 20
16.398438
  0
LWPOLYLINE
  8
0
 62
7
 90
9
 70
1
 10
32.796563
 20
16.760000
 10
32.796563
 20
16.621563
 10
33.443437
 20
16.621563
 10
33.443437
 20
16.898438
 10
32.796563
 20
16.898438
 10
32.796563
 20
16.621563
 10
33.443437
 20
16.621563
 10
33.443437
 20
16.898438
 10
32.796563
 20
16.898438
  0
LWPOLYLINE
  8
0
 62
7
 90
9
 70
1
 10
32.796563
 20
17.260000
 10
32.796563
 20
17.121563
 10
33.443437
 20
17.121563
 10
33.443437
 20
17.398438
 10
32.796563
 20
17.398438
 10
32.796563
 20
17.121563
 10
33.443437
 20
17.121563
 10
33.443437
 20
17.398438
 10
32.796563
 20
17.398438
  0
LWPOLYLINE
  8
0
 62
7
 90
9
 70
1
 10
32.500000
 20
18.203437
 10
32.361562
 20
18.203437
 10
32.361562
 20
17.556562
 10
32.638438
 20
17.556562
 10
32.638438
 20
18.203437
 10
32.361562
 20
18.203437
 10
32.361562
 20
17.556562
 10
32.638438
 20
17.556562
 10
32.638438
 20
18.203437
  0
LWPOLYLINE
  8
0
 62
7
 90
9
 70
1
 10
32.000000
 20
17.556562
 10
32.138438
 20
17.556562
 10
32.138438
 20
18.203437
 10
31.861563
 20
18.203437
 10
31.861563
 20
17.556562
 10
32.138438
 20
17.556562
 10
32.138438
 20
18.203437
 10
31.861563
 20
18.203437
 10
31.861563
 20
17.556562
  0
LWPOLYLINE
  8
0
 62
7
 90
9
 70
1
 10
31.500000
 20
17.556562
 10
31.638437
 20
17.556562
 10
31.638437
 20
18.203437
 10
31.361563
 20
18.203437
 10
31.361563
 20
17.556562
 10
31.638437
 20
17.556562
 10
31.638437
 20
18.203437
 10
31.361563
 20
18.203437
 10
31.361563
 20
17.556562
  0
LWPOLYLINE
  8
0
 62
7
 90
9
 70
1
 10
31.000000
 20
17.556562
 10
31.138437
 20
17.556562
 10
31.138437
 20
18.203437
 10
30.861563
 20
18.203437
 10
30.861563
 20
17.556562
 10
31.138437
 20
17.556562
 10
31.138437
 20
18.203437
 10
30.861563
 20
18.203437
 10
30.861563
 20
17.556562
  0
LWPOLYLINE
  8
0
 62
7
 90
9
 70
1
 10
30.056562
 20
17.260000
 10
30.056562
 20
17.121563
 10
30.703437
 20
17.121563
 10
30.703437
 20
17.398438
 10
30.056562
 20
17.398438
 10
30.056562
 20
17.121563
 10
30.703437
 20
17.121563
 10
30.703437
 20
17.398438
 10
30.056562
 20
17.398438
  0
LWPOLYLINE
  8
0
 62
7
 90
9
 70
1
 10
30.056562
 20
16.760000
 10
30.056562
 20
16.621563
 10
30.703437
 20
16.621563
 10
30.703437
 20
16.898438
 10
30.056562
 20
16.898438
 10
30.056562
 20
16.621563
 10
30.703437
 20
16.621563
 10
30.703437
 20
16.898438
 10
30.056562
 20
16.898438
  0
LWPOLYLINE
  8
0
 62
7
 90
9
 70
1
 10
30.056562
 20
16.260000
 10
30.056562
 20
16.121563
 10
30.703437
 20
16.121563
 10
30.703437
 20
16.398438
 10
30.056562
 20
16.398438
 10
30.056562
 20
16.121563
 10
30.703437
 20
16.121563
 10
30.703437
 20
16.398438
 10
30.056562
 20
16.398438
  0
LWPOLYLINE
  8
0
 62
7
 90
9
 70
1
 10
30.056562
 20
15.760000
 10
30.056562
 20
15.621562
 10
30.703437
 20
15.621562
 10
30.703437
 20
15.898438
 10
30.056562
 20
15.898438
 10
30.056562
 20
15.621562
 10
30.703437
 20
15.621562
 10
30.703437
 20
15.898438
 10
30.056562
 20
15.898438
  0
LWPOLYLINE
  8
0
 62
7
 90
9
 70
1
 10
31.000000
 20
14.816562
 10
31.138437
 20
14.816562
 10
31.138437
 20
15.463438
 10
30.861563
 20
15.463438
 10
30.861563
 20
14.816562
 10
31.138437
 20
14.816562
 10
31.138437
 20
15.463438
 10
30.861563
 20
15.463438
 10
30.861563
 20
14.816562
  0
LWPOLYLINE
  8
0
 62
7
 90
9
 70
1
 10
31.500000
 20
14.816562
 10
31.638437
 20
14.816562
 10
31.638437
 20
15.463438
 10
31.361563
 20
15.463438
 10
31.361563
 20
14.816562
 10
31.638437
 20
14.816562
 10
31.638437
 20
15.463438
 10
31.361563
 20
15.463438
 10
31.361563
 20
14.816562
  0
LWPOLYLINE
  8
0
 62
7
 90
9
 70
1
 10
32.000000
 20
14.816562
 10
32.138438
 20
14.816562
 10
32.138438
 20
15.463438
 10
31.861563
 20
15.463438
 10
31.861563
 20
14.816562
 10
32.138438
 20
14.816562
 10
32.138438
 20
15.463438
 10
31.861563
 20
15.463438
 10
31.861563
 20
14.816562
  0
LWPOLYLINE
  8
0
 62
7
 90
9
 70
1
 10
32.500000
 20
14.816562
 10
32.638438
 20
14.816562
 10
32.638438
 20
15.463438
 10
32.361562
 20
15.463438
 10
32.361562
 20
14.816562
 10
32.638438
 20
14.816562
 10
32.638438
 20
15.463438
 10
32.361562
 20
15.463438
 10
32.361562
 20
14.816562
  0
LWPOLYLINE
  8
0
 62
7
 90
9
 70
1
 10
15.474163
 20
28.317800
 10
15.474163
 20
27.824062
 10
15.775837
 20
27.824062
 10
15.775837
 20
28.811538
 10
15.474163
 20
28.811538
 10
15.474163
 20
27.824062
 10
15.775837
 20
27.824062
 10
15.775837
 20
28.811538
 10
15.474163
 20
28.811538
  0
LWPOLYLINE
  8
0
 62
7
 90
9
 70
1
 10
14.824162
 20
28.317800
 10
14.824162
 20
27.824062
 10
15.125837
 20
27.824062
 10
15.125837
 20
28.811538
 10
14.824162
 20
28.811538
 10
14.824162
 20
27.824062
 10
15.125837
 20
27.824062
 10
15.125837
 20
28.811538
 10
14.824162
 20
28.811538
  0
LWPOLYLINE
  8
0
 62
7
 90
9
 70
1
 10
14.174162
 20
28.317800
 10
14.174162
 20
27.824062
 10
14.475837
 20
27.824062
 10
14.475837
 20
28.811538
 10
14.174162
 20
28.811538
 10
14.174162
 20
27.824062
 10
14.475837
 20
27.824062
 10
14.475837
 20
28.811538
 10
14.174162
 20
28.811538
  0
LWPOLYLINE
  8
0
 62
7
 90
9
 70
1
 10
13.524163
 20
28.317800
 10
13.524163
 20
27.824062
 10
13.825838
 20
27.824062
 10
13.825838
 20
28.811538
 10
13.524163
 20
28.811538
 10
13.524163
 20
27.824062
 10
13.825838
 20
27.824062
 10
13.825838
 20
28.811538
 10
13.524163
 20
28.811538
  0
LWPOLYLINE
  8
0
 62
7
 90
9
 70
1
 10
12.874163
 20
28.317800
 10
12.874163
 20
27.824062
 10
13.175838
 20
27.824062
 10
13.175838
 20
28.811538
 10
12.874163
 20
28.811538
 10
12.874163
 20
27.824062
 10
13.175838
 20
27.824062
 10
13.175838
 20
28.811538
 10
12.874163
 20
28.811538
  0
LWPOLYLINE
  8
0
 62
7
 90
9
 70
1
 10
12.224163
 20
28.317800
 10
12.224163
 20
27.824062
 10
12.525837
 20
27.824062
 10
12.525837
 20
28.811538
 10
12.224163
 20
28.811538
 10
12.224163
 20
27.824062
 10
12.525837
 20
27.824062
 10
12.525837
 20
28.811538
 10
12.224163
 20
28.811538
  0
LWPOLYLINE
  8
0
 62
7
 90
9
 70
1
 10
11.574162
 20
28.317800
 10
11.574162
 20
27.824062
 10
11.875837
 20
27.824062
 10
11.875837
 20
28.811538
 10
11.574162
 20
28.811538
 10
11.574162
 20
27.824062
 10
11.875837
 20
27.824062
 10
11.875837
 20
28.811538
 10
11.574162
 20
28.811538
  0
LWPOLYLINE
  8
0
 62
7
 90
9
 70
1
 10
10.924162
 20
28.317800
 10
10.924162
 20
27.824062
 10
11.225837
 20
27.824062
 10
11.225837
 20
28.811538
 10
10.924162
 20
28.811538
 10
10.924162
 20
27.824062
 10
11.225837
 20
27.824062
 10
11.225837
 20
28.811538
 10
10.924162
 20
28.811538
  0
LWPOLYLINE
  8
0
 62
7
 90
9
 70
1
 10
10.274163
 20
28.317800
 10
10.274163
 20
27.824062
 10
10.575838
 20
27.824062
 10
10.575838
 20
28.811538
 10
10.274163
 20
28.811538
 10
10.274163
 20
27.824062
 10
10.575838
 20
27.824062
 10
10.575838
 20
28.811538
 10
10.274163
 20
28.811538
  0
LWPOLYLINE
  8
0
 62
7
 90
9
 70
1
 10
9.624163
 20
28.317800
 10
9.624163
 20
27.824062
 10
9.925838
 20
27.824062
 10
9.925838
 20
28.811538
 10
9.624163
 20
28.811538
 10
9.624163
 20
27.824062
 10
9.925838
 20
27.824062
 10
9.925838
 20
28.811538
 10
9.624163
 20
28.811538
  0
LWPOLYLINE
  8
0
 62
7
 90
9
 70
1
 10
9.624163
 20
22.482200
 10
9.624163
 20
21.988462
 10
9.925838
 20
21.988462
 10
9.925838
 20
22.975938
 10
9.624163
 20
22.975938
 10
9.624163
 20
21.988462
 10
9.925838
 20
21.988462
 10
9.925838
 20
22.975938
 10
9.624163
 20
22.975938
  0
LWPOLYLINE
  8
0
 62
7
 90
9
 70
1
 10
10.274163
 20
22.482200
 10
10.274163
 20
21.988462
 10
10.575838
 20
21.988462
 10
10.575838
 20
22.975938
 10
10.274163
 20
22.975938
 10
10.274163
 20
21.988462
 10
10.575838
 20
21.988462
 10
10.575838
 20
22.975938
 10
10.274163
 20
22.975938
  0
LWPOLYLINE
  8
0
 62
7
 90
9
 70
1
 10
10.924162
 20
22.482200
 10
10.924162
 20
21.988462
 10
11.225837
 20
21.988462
 10
11.225837
 20
22.975938
 10
10.924162
 20
22.975938
 10
10.924162
 20
21.988462
 10
11.225837
 20
21.988462
 10
11.225837
 20
22.975938
 10
10.924162
 20
22.975938
  0
LWPOLYLINE
  8
0
 62
7
 90
9
 70
1
 10
11.574162
 20
22.482200
 10
11.574162
 20
21.988462
 10
11.875837
 20
21.988462
 10
11.875837
 20
22.975938
 10
11.574162
 20
22.975938
 10
11.574162
 20
21.988462
 10
11.875837
 20
21.988462
 10
11.875837
 20
22.975938
 10
11.574162
 20
22.975938
  0
LWPOLYLINE
  8
0
 62
7
 90
9
 70
1
 10
12.224163
 20
22.482200
 10
12.224163
 20
21.988462
 10
12.525837
 20
21.988462
 10
12.525837
 20
22.975938
 10
12.224163
 20
22.975938
 10
12.224163
 20
21.988462
 10
12.525837
 20
21.988462
 10
12.525837
 20
22.975938
 10
12.224163
 20
22.975938
  0
LWPOLYLINE
  8
0
 62
7
 90
9
 70
1
 10
12.874163
 20
22.482200
 10
12.874163
 20
21.988462
 10
13.175838
 20
21.988462
 10
13.175838
 20
22.975938
 10
12.874163
 20
22.975938
 10
12.874163
 20
21.988462
 10
13.175838
 20
21.988462
 10
13.175838
 20
22.975938
 10
12.874163
 20
22.975938
  0
LWPOLYLINE
  8
0
 62
7
 90
9
 70
1
 10
13.524163
 20
22.482200
 10
13.524163
 20
21.988462
 10
13.825838
 20
21.988462
 10
13.825838
 20
22.975938
 10
13.524163
 20
22.975938
 10
13.524163
 20
21.988462
 10
13.825838
 20
21.988462
 10
13.825838
 20
22.975938
 10
13.524163
 20
22.975938
  0
LWPOLYLINE
  8
0
 62
7
 90
9
 70
1
 10
14.174162
 20
22.482200
 10
14.174162
 20
21.988462
 10
14.475837
 20
21.988462
 10
14.475837
 20
22.975938
 10
14.174162
 20
22.975938
 10
14.174162
 20
21.988462
 10
14.475837
 20
21.988462
 10
14.475837
 20
22.975938
 10
14.174162
 20
22.975938
  0
LWPOLYLINE
  8
0
 62
7
 90
9
 70
1
 10
14.824162
 20
22.482200
 10
14.824162
 20
21.988462
 10
15.125837
 20
21.988462
 10
15.125837
 20
22.975938
 10
14.824162
 20
22.975938
 10
14.824162
 20
21.988462
 10
15.125837
 20
21.988462
 10
15.125837
 20
22.975938
 10
14.824162
 20
22.975938
  0
LWPOLYLINE
  8
0
 62
7
 90
9
 70
1
 10
15.474163
 20
22.482200
 10
15.474163
 20
21.988462
 10
15.775837
 20
21.988462
 10
15.775837
 20
22.975938
 10
15.474163
 20
22.975938
 10
15.474163
 20
21.988462
 10
15.775837
 20
21.988462
 10
15.775837
 20
22.975938
 10
15.474163
 20
22.975938
  0
LWPOLYLINE
  8
0
 62
7
 90
9
 70
1
 10
23.801362
 20
30.378400
 10
23.801362
 20
29.363962
 10
24.458637
 20
29.363962
 10
24.458637
 20
31.392837
 10
23.801362
 20
31.392837
 10
23.801362
 20
29.363962
 10
24.458637
 20
29.363962
 10
24.458637
 20
31.392837
 10
23.801362
 20
31.392837
  0
LWPOLYLINE
  8
0
 62
7
 90
9
 70
1
 10
22.531363
 20
30.378400
 10
22.531363
 20
29.363962
 10
23.188637
 20
29.363962
 10
23.188637
 20
31.392837
 10
22.531363
 20
31.392837
 10
22.531363
 20
29.363962
 10
23.188637
 20
29.363962
 10
23.188637
 20
31.392837
 10
22.531363
 20
31.392837
  0
LWPOLYLINE
  8
0
 62
7
 90
9
 70
1
 10
21.261363
 20
30.378400
 10
21.261363
 20
29.363962
 10
21.918637
 20
29.363962
 10
21.918637
 20
31.392837
 10
21.261363
 20
31.392837
 10
21.261363
 20
29.363962
 10
21.918637
 20
29.363962
 10
21.918637
 20
31.392837
 10
21.261363
 20
31.392837
  0
LWPOLYLINE
  8
0
 62
7
 90
9
 70
1
 10
19.991363
 20
30.378400
 10
19.991363
 20
29.363962
 10
20.648637
 20
29.363962
 10
20.648637
 20
31.392837
 10
19.991363
 20
31.392837
 10
19.991363
 20
29.363962
 10
20.648637
 20
29.363962
 10
20.648637
 20
31.392837
 10
19.991363
 20
31.392837
  0
LWPOLYLINE
  8
0
 62
7
 90
9
 70
1
 10
19.991363
 20
24.231600
 10
19.991363
 20
23.217163
 10
20.648637
 20
23.217163
 10
20.648637
 20
25.246037
 10
19.991363
 20
25.246037
 10
19.991363
 20
23.217163
 10
20.648637
 20
23.217163
 10
20.648637
 20
25.246037
 10
19.991363
 20
25.246037
  0
LWPOLYLINE
  8
0
 62
7
 90
9
 70
1
 10
21.261363
 20
24.231600
 10
21.261363
 20
23.217163
 10
21.918637
 20
23.217163
 10
21.918637
 20
25.246037
 10
21.261363
 20
25.246037
 10
21.261363
 20
23.217163
 10
21.918637
 20
23.217163
 10
21.918637
 20
25.246037
 10
21.261363
 20
25.246037
  0
LWPOLYLINE
  8
0
 62
7
 90
9
 70
1
 10
22.531363
 20
24.231600
 10
22.531363
 20
23.217163
 10
23.188637
 20
23.217163
 10
23.188637
 20
25.246037
 10
22.531363
 20
25.246037
 10
22.531363
 20
23.217163
 10
23.188637
 20
23.217163
 10
23.188637
 20
25.246037
 10
22.531363
 20
25.246037
  0
LWPOLYLINE
  8
0
 62
7
 90
9
 70
1
 10
23.801362
 20
24.231600
 10
23.801362
 20
23.217163
 10
24.458637
 20
23.217163
 10
24.458637
 20
25.246037
 10
23.801362
 20
25.246037
 10
23.801362
 20
23.217163
 10
24.458637
 20
23.217163
 10
24.458637
 20
25.246037
 10
23.801362
 20
25.246037
  0
LWPOLYLINE
  8
0
 62
7
 90
9
 70
1
 10
23.495000
 20
15.658437
 10
22.646563
 20
15.658437
 10
22.646563
 20
14.961563
 10
24.343438
 20
14.961563
 10
24.343438
 20
15.658437
 10
22.646563
 20
15.658437
 10
22.646563
 20
14.961563
 10
24.343438
 20
14.961563
 10
24.343438
 20
15.658437
  0
LWPOLYLINE
  8
0
 62
7
 90
9
 70
1
 10
23.495000
 20
16.858438
 10
22.646563
 20
16.858438
 10
22.646563
 20
16.161563
 10
24.343438
 20
16.161563
 10
24.343438
 20
16.858438
 10
22.646563
 20
16.858438
 10
22.646563
 20
16.161563
 10
24.343438
 20
16.161563
 10
24.343438
 20
16.858438
  0
LWPOLYLINE
  8
0
 62
7
 90
9
 70
1
 10
23.495000
 20
18.058438
 10
22.646563
 20
18.058438
 10
22.646563
 20
17.361563
 10
24.343438
 20
17.361563
 10
24.343438
 20
18.058438
 10
22.646563
 20
18.058438
 10
22.646563
 20
17.361563
 10
24.343438
 20
17.361563
 10
24.343438
 20
18.058438
  0
LWPOLYLINE
  8
0
 62
7
 90
9
 70
1
 10
11.798438
 20
30.600000
 10
11.798438
 20
31.148438
 10
9.901562
 20
31.148438
 10
9.901562
 20
30.051563
 10
11.798438
 20
30.051563
 10
11.798438
 20
31.148438
 10
9.901562
 20
31.148438
 10
9.901562
 20
30.051563
 10
11.798438
 20
30.051563
  0
LWPOLYLINE
  8
0
 62
7
 90
9
 70
1
 10
15.498438
 20
30.600000
 10
15.498438
 20
31.148438
 10
13.601562
 20
31.148438
 10
13.601562
 20
30.051563
 10
15.498438
 20
30.051563
 10
15.498438
 20
31.148438
 10
13.601562
 20
31.148438
 10
13.601562
 20
30.051563
 10
15.498438
 20
30.051563
  0
LWPOLYLINE
  8
0
 62
7
 90
9
 70
1
 10
15.498438
 20
32.900000
 10
15.498438
 20
33.448437
 10
13.601562
 20
33.448437
 10
13.601562
 20
32.351562
 10
15.498438
 20
32.351562
 10
15.498438
 20
33.448437
 10
13.601562
 20
33.448437
 10
13.601562
 20
32.351562
 10
15.498438
 20
32.351562
  0
LWPOLYLINE
  8
0
 62
7
 90
9
 70
1
 10
11.798438
 20
32.900000
 10
11.798438
 20
33.448437
 10
9.901562
 20
33.448437
 10
9.901562
 20
32.351562
 10
11.798438
 20
32.351562
 10
11.798438
 20
33.448437
 10
9.901562
 20
33.448437
 10
9.901562
 20
32.351562
 10
11.798438
 20
32.351562
  0
ENDSEC
  0
EOF
